<?xml version="1.0" encoding="UTF-8"?>
<svg version="1.1" xmlns="http://www.w3.org/2000/svg" width="481" height="519">
<path d="M0 0 C1.1690387 -0.00414413 2.33807739 -0.00828827 3.5425415 -0.01255798 C8.34915598 0.06720295 13.10119169 0.48705189 17.87402344 1.04272461 C17.87402344 1.70272461 17.87402344 2.36272461 17.87402344 3.04272461 C19.26621094 3.10459961 19.26621094 3.10459961 20.68652344 3.16772461 C26.32628413 3.92201359 31.05716582 7.19442002 35.87402344 10.04272461 C35.87402344 10.70272461 35.87402344 11.36272461 35.87402344 12.04272461 C36.53402344 12.04272461 37.19402344 12.04272461 37.87402344 12.04272461 C39.22789279 13.69275289 40.56080486 15.36016331 41.87402344 17.04272461 C42.53402344 17.37272461 43.19402344 17.70272461 43.87402344 18.04272461 C44.21744793 19.3734945 44.55022217 20.7070444 44.87402344 22.04272461 C45.86402344 23.03272461 45.86402344 23.03272461 46.87402344 24.04272461 C49.04815668 29.88138632 49.20840237 35.35536263 49.18652344 41.54272461 C49.20263672 42.4540918 49.21875 43.36545898 49.23535156 44.30444336 C49.23949395 50.04578944 48.45488567 53.92040261 45.87402344 59.04272461 C45.44089844 60.65147461 45.44089844 60.65147461 44.99902344 62.29272461 C43.58017553 65.76101948 42.10102802 66.27555543 38.87402344 68.04272461 C38.28363281 68.8303418 37.69324219 69.61795898 37.08496094 70.42944336 C34.56808978 73.40433171 32.3765706 74.62901471 28.87402344 76.29272461 C27.84277344 76.79288086 26.81152344 77.29303711 25.74902344 77.80834961 C21.35710862 79.69400869 17.39590796 80.2152553 12.62792969 80.63891602 C5.48113173 81.28875828 -0.81473908 82.11689289 -7.37597656 85.23803711 C-9.12597656 86.04272461 -9.12597656 86.04272461 -11.12597656 86.04272461 C-11.12597656 86.70272461 -11.12597656 87.36272461 -11.12597656 88.04272461 C-12.61097656 88.53772461 -12.61097656 88.53772461 -14.12597656 89.04272461 C-22.31288535 97.00635407 -27.17072798 106.28323643 -28.12597656 117.72631836 C-28.12597656 127.22463234 -24.64765417 137.0862685 -18.12597656 144.04272461 C-17.46597656 144.37272461 -16.80597656 144.70272461 -16.12597656 145.04272461 C-16.12597656 145.70272461 -16.12597656 146.36272461 -16.12597656 147.04272461 C-15.13597656 147.37272461 -14.14597656 147.70272461 -13.12597656 148.04272461 C-11.16688653 149.24157075 -9.26561026 150.51223102 -7.35644531 151.78881836 C-2.04680776 154.77374595 3.24630482 155.42838299 9.18652344 155.98022461 C19.66279295 157.11303631 26.64638858 159.27978959 34.87402344 166.04272461 C35.76089844 166.64084961 36.64777344 167.23897461 37.56152344 167.85522461 C47.63214903 177.38149206 48.4134099 191.09789583 48.87402344 204.04272461 C48.21402344 204.04272461 47.55402344 204.04272461 46.87402344 204.04272461 C46.81214844 205.17709961 46.75027344 206.31147461 46.68652344 207.48022461 C46.05032319 212.57891513 44.00394575 216.97635653 40.87402344 221.04272461 C38.70605469 222.30053711 38.70605469 222.30053711 36.87402344 223.04272461 C36.87402344 223.70272461 36.87402344 224.36272461 36.87402344 225.04272461 C27.71703306 233.62740308 17.00645316 235.40131859 4.87402344 235.04272461 C4.87402344 235.70272461 4.87402344 236.36272461 4.87402344 237.04272461 C4.03871094 237.08139648 4.03871094 237.08139648 3.18652344 237.12084961 C-4.40272719 237.68491553 -10.25430541 240.18341055 -16.12597656 245.04272461 C-16.90972656 245.53772461 -17.69347656 246.03272461 -18.50097656 246.54272461 C-26.17165553 253.84813315 -28.93460682 263.88779213 -29.65698242 274.13183594 C-30.35781938 283.52917387 -32.85171966 290.11371924 -38.12597656 298.04272461 C-38.63257813 298.8200293 -39.13917969 299.59733398 -39.66113281 300.39819336 C-40.14453125 300.94088867 -40.62792969 301.48358398 -41.12597656 302.04272461 C-42.11597656 302.04272461 -43.10597656 302.04272461 -44.12597656 302.04272461 C-44.45597656 303.03272461 -44.78597656 304.02272461 -45.12597656 305.04272461 C-45.78597656 305.04272461 -46.44597656 305.04272461 -47.12597656 305.04272461 C-47.12597656 305.70272461 -47.12597656 306.36272461 -47.12597656 307.04272461 C-49.39667078 307.85561514 -51.66752557 308.66805199 -53.93847656 309.48022461 C-54.90237305 309.82537109 -54.90237305 309.82537109 -55.88574219 310.17749023 C-66.73049113 314.05462846 -78.50421813 313.03922253 -89.11425781 308.17553711 C-94.1562071 305.3363812 -97.58302109 301.59795308 -101.12597656 297.04272461 C-101.78597656 296.71272461 -102.44597656 296.38272461 -103.12597656 296.04272461 C-103.75097656 293.48022461 -103.75097656 293.48022461 -104.12597656 291.04272461 C-104.78597656 291.04272461 -105.44597656 291.04272461 -106.12597656 291.04272461 C-107.40077375 287.388306 -108.38804655 283.83779324 -109.12597656 280.04272461 C-109.45597656 279.38272461 -109.78597656 278.72272461 -110.12597656 278.04272461 C-110.18857199 276.35791767 -110.18361252 274.6704502 -110.14770508 272.98486328 C-110.12761383 271.89322876 -110.10752258 270.80159424 -110.08682251 269.67687988 C-110.04626236 267.83736755 -110.04626236 267.83736755 -110.00488281 265.96069336 C-109.98024415 264.62310105 -109.9563759 263.28549438 -109.93319702 261.94787598 C-109.88162731 258.97452849 -109.82836519 256.00121936 -109.77389526 253.02792358 C-109.02343833 211.41060468 -109.03592094 169.7933111 -109.06195974 128.17093706 C-109.06348246 125.72072764 -109.06488998 123.27051818 -109.06627274 120.82030869 C-109.07790955 100.56110305 -109.09749581 80.30191377 -109.12597656 60.04272461 C-108.79597656 60.04272461 -108.46597656 60.04272461 -108.12597656 60.04272461 C-108.14692383 59.27718262 -108.16787109 58.51164062 -108.18945312 57.72290039 C-108.27336018 54.20464576 -108.32487253 50.68660258 -108.37597656 47.16772461 C-108.40949219 45.96374023 -108.44300781 44.75975586 -108.47753906 43.51928711 C-108.56214812 35.73525339 -107.51950899 30.02748767 -104.12597656 23.04272461 C-103.79597656 22.05272461 -103.46597656 21.06272461 -103.12597656 20.04272461 C-102.46597656 20.04272461 -101.80597656 20.04272461 -101.12597656 20.04272461 C-101.12597656 19.05272461 -101.12597656 18.06272461 -101.12597656 17.04272461 C-100.46597656 17.04272461 -99.80597656 17.04272461 -99.12597656 17.04272461 C-98.81660156 16.20741211 -98.81660156 16.20741211 -98.50097656 15.35522461 C-94.24840156 8.20316665 -84.77703709 3.59307812 -77.12597656 1.04272461 C-74.98261088 0.9249474 -72.8358641 0.86582486 -70.68945312 0.83740234 C-70.04011307 0.82750275 -69.39077301 0.81760315 -68.72175598 0.80740356 C-66.57007489 0.77577728 -64.41837274 0.75099169 -62.26660156 0.72631836 C-60.75982131 0.70571499 -59.2530464 0.68471771 -57.74627686 0.66334534 C-53.76707657 0.60809747 -49.78782284 0.55877176 -45.80853271 0.51049805 C-42.60296652 0.47060441 -39.39746589 0.42646174 -36.19195938 0.38206387 C-32.32102736 0.32858402 -28.45006794 0.27724316 -24.57910156 0.22631836 C-23.85958565 0.21676054 -23.14006973 0.20720272 -22.39875031 0.19735527 C-14.93268966 0.09986497 -7.46668036 0.02607735 0 0 Z " fill="#191919" transform="translate(227.1259765625,115.957275390625)"/>
<path d="M0 0 C0 0.66 0 1.32 0 2 C0.66 2 1.32 2 2 2 C9.1385862 11.88266669 13.2982155 22.17213459 11.4921875 34.453125 C10.28878116 40.00146158 8.92338881 45.0887068 6 50 C5.26979806 51.29108169 4.54066292 52.58276722 3.8125 53.875 C3.214375 54.90625 2.61625 55.9375 2 57 C1.01 57 0.02 57 -1 57 C-1.495 58.485 -1.495 58.485 -2 60 C-6.33333333 63 -6.33333333 63 -9 63 C-9 63.66 -9 64.32 -9 65 C-18.91779973 69.56218787 -30.57977944 70.4676846 -41 67 C-47.53289644 64.37895859 -53.08609121 61.05265445 -58 56 C-58.62003906 55.36449219 -59.24007813 54.72898437 -59.87890625 54.07421875 C-67.36061772 45.5303854 -68.6002565 35.05889204 -68.28125 24 C-67.49996776 15.66632278 -63.89280299 9.64391143 -59 3 C-57.9171875 1.515 -57.9171875 1.515 -56.8125 0 C-55 -2 -55 -2 -52 -3 C-51.67 -3.66 -51.34 -4.32 -51 -5 C-33.3131153 -13.22824636 -15.41410578 -12.96186168 0 0 Z " fill="#1E1E1E" transform="translate(342,206)"/>
<path d="M0 0 C8.55307441 6.40842292 13.7433237 13.90482985 16.3046875 24.2734375 C16.68973554 27.49685843 16.72676496 30.65532335 16.6796875 33.8984375 C16.69128906 34.70539063 16.70289063 35.51234375 16.71484375 36.34375 C16.68851183 41.75057124 15.72878827 45.44350808 13.3046875 50.2734375 C12.8921875 51.2428125 12.4796875 52.2121875 12.0546875 53.2109375 C9.25212762 58.11541729 5.80080584 63.44139805 0.3046875 65.2734375 C-0.3553125 65.9334375 -1.0153125 66.5934375 -1.6953125 67.2734375 C-2.5409375 67.4384375 -3.3865625 67.6034375 -4.2578125 67.7734375 C-5.0621875 67.9384375 -5.8665625 68.1034375 -6.6953125 68.2734375 C-7.0253125 68.9334375 -7.3553125 69.5934375 -7.6953125 70.2734375 C-9.0153125 70.2734375 -10.3353125 70.2734375 -11.6953125 70.2734375 C-11.6953125 70.9334375 -11.6953125 71.5934375 -11.6953125 72.2734375 C-26.25680269 72.78686908 -37.97666907 73.00021883 -49.6875 63.19921875 C-54.51904596 58.56507058 -58.05016472 53.85402863 -59.6953125 47.2734375 C-60.3553125 47.2734375 -61.0153125 47.2734375 -61.6953125 47.2734375 C-62.92392728 37.75167295 -62.92392728 28.79520205 -61.6953125 19.2734375 C-61.0353125 19.2734375 -60.3753125 19.2734375 -59.6953125 19.2734375 C-59.52515625 18.68175781 -59.355 18.09007812 -59.1796875 17.48046875 C-57.70870575 12.68412931 -56.32813218 8.90625718 -52.6953125 5.2734375 C-52.0353125 5.2734375 -51.3753125 5.2734375 -50.6953125 5.2734375 C-50.3653125 4.2834375 -50.0353125 3.2934375 -49.6953125 2.2734375 C-47.4453125 0.7734375 -47.4453125 0.7734375 -44.6953125 -0.7265625 C-43.93734375 -1.21640625 -43.179375 -1.70625 -42.3984375 -2.2109375 C-29.42615491 -9.48441386 -12.28019672 -7.86644486 0 0 Z " fill="#1D1D1D" transform="translate(335.6953125,356.7265625)"/>
<path d="M0 0 C0 0.66 0 1.32 0 2 C0.5775 2.226875 1.155 2.45375 1.75 2.6875 C6.00560735 5.16993762 7.70310785 8.1517367 9.3125 12.75 C10.80052177 19.88178002 9.46729626 25.89328354 6.1328125 32.2734375 C2.91684824 37.17501061 -1.5353721 39.23330572 -7 41 C-13.85934534 42.06778303 -19.96647316 40.55164415 -25.796875 36.86328125 C-28.46235024 34.85148208 -29.87570017 33.39953516 -30.875 30.1875 C-30.936875 29.1046875 -30.936875 29.1046875 -31 28 C-31.66 28 -32.32 28 -33 28 C-34.10689569 20.83509414 -34.80301772 13.73140961 -30.9609375 7.24609375 C-23.44051962 -2.43341185 -11.12565071 -4.94473365 0 0 Z " fill="#242424" transform="translate(247,370)"/>
<path d="M0 0 C0.66 0.66 1.32 1.32 2 2 C-1.75 7.875 -1.75 7.875 -4 9 C-6.1385485 6.8614515 -6.42655063 5.86724686 -7 3 C-4.03 3.495 -4.03 3.495 -1 4 C-0.67 2.68 -0.34 1.36 0 0 Z " fill="#707070" transform="translate(347,406)"/>
<path d="M0 0 C1.3418344 2.68366879 0.73004953 4.15280683 0 7 C-0.33 7.33 -0.66 7.66 -1 8 C-1.23287008 9.68183948 -1.41264166 11.3712416 -1.5625 13.0625 C-1.68818359 14.44115234 -1.68818359 14.44115234 -1.81640625 15.84765625 C-1.87699219 16.55792969 -1.93757812 17.26820313 -2 18 C-4.32824459 14.40338336 -4.00199595 12.01097772 -3.25 7.875 C-3.06953125 6.82054687 -2.8890625 5.76609375 -2.703125 4.6796875 C-2 2 -2 2 0 0 Z " fill="#909090" transform="translate(217,377)"/>
<path d="M0 0 C0.66 0.33 1.32 0.66 2 1 C0.73861805 2.34227818 -0.53444559 3.67358677 -1.8125 5 C-2.52019531 5.7425 -3.22789062 6.485 -3.95703125 7.25 C-6 9 -6 9 -9 9 C-8.67 8.01 -8.34 7.02 -8 6 C-7.34 6 -6.68 6 -6 6 C-5.67 5.01 -5.34 4.02 -5 3 C-2.5625 1.25 -2.5625 1.25 0 0 Z " fill="#949494" transform="translate(291,356)"/>
<path d="M0 0 C0.66 0.33 1.32 0.66 2 1 C1.67 1.66 1.34 2.32 1 3 C1.66 3.33 2.32 3.66 3 4 C2.360625 4.5775 1.72125 5.155 1.0625 5.75 C-0.98223868 7.98062401 -1.58205199 9.07436391 -2 12 C-2.66 11.67 -3.32 11.34 -4 11 C-2.68 7.37 -1.36 3.74 0 0 Z " fill="#A7A7A7" transform="translate(124,136)"/>
<path d="M0 0 C1.32 0.99 2.64 1.98 4 3 C3.34 3 2.68 3 2 3 C1.67 3.99 1.34 4.98 1 6 C-0.32 5.67 -1.64 5.34 -3 5 C-2.625 3.0625 -2.625 3.0625 -2 1 C-1.34 0.67 -0.68 0.34 0 0 Z " fill="#141414" transform="translate(284,408)"/>
<path d="M0 0 C1.32 0 2.64 0 4 0 C4.33 0.99 4.66 1.98 5 3 C2.64046906 5.35953094 1.22104383 5.49141413 -2 6 C-1.34 5.67 -0.68 5.34 0 5 C0 3.35 0 1.7 0 0 Z " fill="#555555" transform="translate(331,419)"/>
<path d="M0 0 C2.31 0.33 4.62 0.66 7 1 C7 1.66 7 2.32 7 3 C6.01 3.33 5.02 3.66 4 4 C3.67 4.66 3.34 5.32 3 6 C2.34 5.67 1.68 5.34 1 5 C0.375 2.4375 0.375 2.4375 0 0 Z " fill="#6C6C6C" transform="translate(209,201)"/>
<path d="M0 0 C0 3.4448059 -0.71212977 5.81421574 -2 9 C-2.99 9.66 -3.98 10.32 -5 11 C-4.54917531 9.53932801 -4.08906463 8.08151968 -3.625 6.625 C-3.36976563 5.81289063 -3.11453125 5.00078125 -2.8515625 4.1640625 C-2 2 -2 2 0 0 Z " fill="#949494" transform="translate(281,365)"/>
<path d="M0 0 C1.63001953 0.01353516 1.63001953 0.01353516 3.29296875 0.02734375 C4.12441406 0.03894531 4.95585937 0.05054688 5.8125 0.0625 C5.8125 0.3925 5.8125 0.7225 5.8125 1.0625 C4.76449219 1.15337891 4.76449219 1.15337891 3.6953125 1.24609375 C2.78523437 1.32988281 1.87515625 1.41367187 0.9375 1.5 C0.03257812 1.58121094 -0.87234375 1.66242188 -1.8046875 1.74609375 C-4.19860861 1.93239285 -4.19860861 1.93239285 -6.1875 3.0625 C-7.1775 2.4025 -8.1675 1.7425 -9.1875 1.0625 C-5.90230525 -0.03256492 -3.45086585 -0.03710608 0 0 Z " fill="#A3A3A3" transform="translate(235.1875,367.9375)"/>
<path d="M0 0 C1.67542976 0.28604898 3.34385343 0.61781233 5 1 C5 1.66 5 2.32 5 3 C3 4.625 3 4.625 1 6 C0.34 4.35 -0.32 2.7 -1 1 C-0.67 0.67 -0.34 0.34 0 0 Z " fill="#6C6C6C" transform="translate(259,338)"/>
<path d="" fill="#FFFFFF" transform="translate(0,0)"/>
<path d="" fill="#FFFFFF" transform="translate(0,0)"/>
<path d="" fill="#FFFFFF" transform="translate(0,0)"/>
</svg>
