<?xml version="1.0" encoding="UTF-8"?>
<svg version="1.1" xmlns="http://www.w3.org/2000/svg" width="471" height="530">
<path d="M0 0 C0.93134766 -0.00350464 1.86269531 -0.00700928 2.82226562 -0.01062012 C5.87450812 -0.01936026 8.92651526 -0.01361517 11.97875977 -0.00683594 C14.11670475 -0.00818492 16.25464944 -0.01012739 18.39259338 -0.01263428 C22.86348403 -0.01557519 27.33429449 -0.01132156 31.80517578 -0.00195312 C37.51550661 0.00943378 43.22564925 0.0028801 48.93597317 -0.00909805 C53.34822488 -0.01635045 57.76043253 -0.01401311 62.17268562 -0.00884247 C64.27727341 -0.00751495 66.38186529 -0.00912196 68.48644829 -0.01380157 C71.43638468 -0.01892179 74.3860231 -0.01107961 77.3359375 0 C78.62133171 -0.00607269 78.62133171 -0.00607269 79.93269348 -0.01226807 C94.51299703 0.08838864 107.48451408 4.07119832 118.24438477 14.14160156 C127.8685697 24.45471947 130.93534479 36.43636268 130.54125977 50.21972656 C129.84678936 62.45508484 123.65593428 72.3139816 114.92016602 80.57128906 C105.3542924 88.59689489 95.58534815 91.01568645 83.35766602 91.63378906 C71.05105999 92.459557 61.06904649 96.4472998 52.23266602 105.25878906 C43.77723604 116.38949365 40.82303311 128.44910789 42.23266602 142.25878906 C43.681219 148.94154638 45.96526989 154.86178808 50.23266602 160.25878906 C50.6284082 160.80792969 51.02415039 161.35707031 51.43188477 161.92285156 C57.25681311 169.50026551 66.20448123 175.20720247 75.70141602 176.62817383 C79.62054854 177.10677599 83.54308393 177.53798854 87.47094727 177.93847656 C101.37045484 179.55001367 111.73852428 185.29764176 120.66625977 196.11035156 C128.34860621 206.64723571 130.10964532 218.37565912 128.76782227 231.19238281 C126.82683885 242.31407613 120.20292634 253.34076542 111.23266602 260.25878906 C102.40589634 265.47788721 94.1428452 268.41322437 83.92016602 268.69628906 C70.24703395 269.32837674 60.82450471 273.37628859 51.23266602 283.25878906 C50.57266602 283.25878906 49.91266602 283.25878906 49.23266602 283.25878906 C48.90266602 284.57878906 48.57266602 285.89878906 48.23266602 287.25878906 C47.57266602 287.25878906 46.91266602 287.25878906 46.23266602 287.25878906 C46.10762695 287.82339844 45.98258789 288.38800781 45.85375977 288.96972656 C45.19634531 291.39265029 44.26831577 293.57026322 43.29516602 295.88378906 C41.37404855 301.02054041 40.71354984 305.84435177 40.23266602 311.25878906 C39.37243439 320.78250017 36.78298727 328.84069474 32.23266602 337.25878906 C31.57266602 337.25878906 30.91266602 337.25878906 30.23266602 337.25878906 C30.06766602 337.93941406 29.90266602 338.62003906 29.73266602 339.32128906 C25.2747129 348.05144725 15.84757745 352.08402366 6.95141602 355.00878906 C-6.89582416 358.62111259 -19.88376865 355.33632087 -32.15795898 348.50488281 C-33.76733398 347.25878906 -33.76733398 347.25878906 -34.76733398 344.25878906 C-36.76749865 343.0499681 -36.76749865 343.0499681 -38.76733398 342.25878906 C-38.76733398 341.59878906 -38.76733398 340.93878906 -38.76733398 340.25878906 C-39.75733398 339.92878906 -40.74733398 339.59878906 -41.76733398 339.25878906 C-43.27756718 336.71137237 -44.60737155 334.22829014 -45.89233398 331.57128906 C-46.25198242 330.86294922 -46.61163086 330.15460938 -46.98217773 329.42480469 C-49.93232013 323.44165073 -50.89139117 318.08149107 -50.89672852 311.38183594 C-50.89984039 310.21704208 -50.90295227 309.05224823 -50.90615845 307.85215759 C-50.9041745 306.57353348 -50.90219055 305.29490936 -50.90014648 303.97753906 C-50.90116874 302.58350092 -50.90251191 301.18946298 -50.90414429 299.79542542 C-50.90689277 295.93424644 -50.90227111 292.07310666 -50.89590454 288.21193314 C-50.89232096 285.74983857 -50.89070895 283.28774994 -50.88964844 280.82565308 C-50.86889931 241.53520007 -50.49450218 202.24642302 -50.12329102 162.95800781 C-50.07734943 158.06998889 -50.0316441 153.18196781 -49.98608398 148.29394531 C-49.96952003 146.52793787 -49.96952003 146.52793787 -49.95262146 144.72625351 C-49.82037742 130.4819449 -49.73680698 116.24060214 -49.76681519 101.99568176 C-49.78510357 90.77111089 -49.65266979 79.55076089 -49.44995117 68.328125 C-49.41091937 66.07949608 -49.37621998 63.83078852 -49.34545898 61.58203125 C-49.29971274 58.23969641 -49.24194831 54.89775967 -49.18139648 51.55566406 C-49.16406967 50.06809601 -49.16406967 50.06809601 -49.14639282 48.55047607 C-48.94494329 38.9848394 -47.65098766 30.57908792 -42.76733398 22.25878906 C-42.18983398 21.26878906 -41.61233398 20.27878906 -41.01733398 19.25878906 C-30.58746121 5.35229203 -17.04314514 -0.08032857 0 0 Z " fill="#F9F9F9" transform="translate(143.767333984375,87.7412109375)"/>
<path d="M0 0 C13.08412668 7.92923135 20.34869015 18.25492319 24 33 C25.24983101 46.99520077 22.89547124 58.79401675 14 70 C11.5 72.75 11.5 72.75 9 75 C8.13375 75.825 7.2675 76.65 6.375 77.5 C-3.89181946 85.94873685 -16.28896489 87.02121871 -29 86 C-41.41435685 83.79830851 -51.72952793 77.3307473 -59 67 C-66.1003421 54.81989188 -67.77746424 43.12196699 -65.34765625 29.28515625 C-62.09076265 17.52958749 -55.08529066 7.71328572 -44.48046875 1.53125 C-31.16793763 -5.33458314 -13.60198864 -7.70128543 0 0 Z " fill="#F4F4F4" transform="translate(338,182)"/>
<path d="M0 0 C8.50784802 7.05667662 14.61367646 16.62782854 15.95019531 27.7644043 C16.08492275 30.39233778 16.1147798 32.99386146 16.0859375 35.625 C16.08110352 37.0011145 16.08110352 37.0011145 16.07617188 38.4050293 C15.93551496 45.24689695 14.86177937 51.12456706 11.6484375 57.25 C10.9884375 57.25 10.3284375 57.25 9.6484375 57.25 C9.3184375 58.9 8.9884375 60.55 8.6484375 62.25 C7.1634375 62.745 7.1634375 62.745 5.6484375 63.25 C5.5040625 63.86875 5.3596875 64.4875 5.2109375 65.125 C4.45292437 67.98860516 3.13147138 68.74513098 0.6484375 70.25 C-0.0115625 70.25 -0.6715625 70.25 -1.3515625 70.25 C-1.3515625 70.91 -1.3515625 71.57 -1.3515625 72.25 C-3.22393621 73.21345444 -5.0995924 74.17053102 -6.9765625 75.125 C-8.02070313 75.65867187 -9.06484375 76.19234375 -10.140625 76.7421875 C-21.78062264 82.20817179 -35.46390196 81.88479006 -47.51953125 77.578125 C-52.08419881 75.43745331 -55.66131048 72.65025187 -59.3515625 69.25 C-59.97675781 68.73824219 -60.60195313 68.22648437 -61.24609375 67.69921875 C-70.11743248 59.910222 -73.34358107 48.50458051 -74.2265625 37.10546875 C-74.61018515 25.27310749 -70.97814123 14.82469597 -63.6015625 5.5 C-62.8590625 4.7575 -62.1165625 4.015 -61.3515625 3.25 C-60.6915625 3.25 -60.0315625 3.25 -59.3515625 3.25 C-59.3515625 2.59 -59.3515625 1.93 -59.3515625 1.25 C-43.37041043 -14.73115207 -16.93444074 -12.6023745 0 0 Z " fill="#F5F5F5" transform="translate(344.3515625,364.75)"/>
<path d="M0 0 C4.95430634 3.23106935 8.12389406 7.37168218 10 13 C10.80427686 23.37649004 9.73515119 29.39727321 4 38 C3.34 38 2.68 38 2 38 C2 38.66 2 39.32 2 40 C-5.13487104 44.25348081 -10.58630981 45.88955315 -19 45 C-26.16491508 42.890649 -32.42180115 39.02260544 -36.375 32.5625 C-39.25961788 26.21392675 -38.98535797 18.42653118 -37.4921875 11.71875 C-35.9239672 7.60893128 -33.25087396 4.86386515 -30 2 C-28.7934375 0.9171875 -28.7934375 0.9171875 -27.5625 -0.1875 C-18.65205451 -6.49001022 -9.17297919 -4.66695432 0 0 Z " fill="#EDEDED" transform="translate(241,379)"/>
<path d="M0 0 C-0.33 0.99 -0.66 1.98 -1 3 C-1.66 3 -2.32 3 -3 3 C-3.33644531 3.85851562 -3.33644531 3.85851562 -3.6796875 4.734375 C-5.3780159 7.64866633 -7.45880069 9.19907745 -10.125 11.25 C-11.03507812 11.95640625 -11.94515625 12.6628125 -12.8828125 13.390625 C-13.58148438 13.92171875 -14.28015625 14.4528125 -15 15 C-15 10.6682743 -12.773239 9.05183829 -9.94921875 5.94140625 C-3.98390342 0 -3.98390342 0 0 0 Z " fill="#868686" transform="translate(295,184)"/>
<path d="M0 0 C-0.75 2.4375 -0.75 2.4375 -2 5 C-2.598125 5.144375 -3.19625 5.28875 -3.8125 5.4375 C-7.32218349 6.33999004 -8.76511241 9.26226271 -11 12 C-13.3125 13.375 -13.3125 13.375 -15 14 C-13.54238919 10.63163511 -11.6759774 8.43494248 -9.0625 5.875 C-8.37285156 5.19179687 -7.68320313 4.50859375 -6.97265625 3.8046875 C-2.81385281 0 -2.81385281 0 0 0 Z " fill="#787878" transform="translate(118,94)"/>
<path d="M0 0 C6.625 0.75 6.625 0.75 10 3 C8.02 3.33 6.04 3.66 4 4 C3.67 3.01 3.34 2.02 3 1 C2.01 0.67 1.02 0.34 0 0 Z " fill="#7C7C7C" transform="translate(236,267)"/>
<path d="M0 0 C1.65 0 3.3 0 5 0 C2.82575883 2.50037734 1.26954202 3.43628586 -2 4 C-1.34 2.68 -0.68 1.36 0 0 Z " fill="#646464" transform="translate(339,259)"/>
<path d="M0 0 C0.66 0.99 1.32 1.98 2 3 C0.68 3.99 -0.64 4.98 -2 6 C-1.125 1.125 -1.125 1.125 0 0 Z " fill="#7E7E7E" transform="translate(101,110)"/>
<path d="M0 0 C-0.33 0.99 -0.66 1.98 -1 3 C-2.65 3.33 -4.3 3.66 -6 4 C-2.25 0 -2.25 0 0 0 Z " fill="#606060" transform="translate(295,184)"/>
<path d="M0 0 C0.99 0.66 1.98 1.32 3 2 C1.35 2.66 -0.3 3.32 -2 4 C-1.34 2.68 -0.68 1.36 0 0 Z " fill="#7D7D7D" transform="translate(162,434)"/>
<path d="M0 0 C0.66 0 1.32 0 2 0 C1.34 1.65 0.68 3.3 0 5 C-0.66 4.34 -1.32 3.68 -2 3 C-1.34 2.01 -0.68 1.02 0 0 Z " fill="#A7A7A7" transform="translate(116,94)"/>
</svg>
